<?xml version="1.0" standalone="no"?>
<!DOCTYPE svg PUBLIC "-//W3C//DTD SVG 20010904//EN"
 "http://www.w3.org/TR/2001/REC-SVG-20010904/DTD/svg10.dtd">
<svg version="1.0" xmlns="http://www.w3.org/2000/svg"
 width="191.000000pt" height="148.000000pt" viewBox="0 0 191.000000 148.000000"
 preserveAspectRatio="xMidYMid meet">

<g transform="translate(0.000000,148.000000) scale(0.100000,-0.100000)"
fill="#000000" stroke="none">
<path d="M224 1014 c-60 -29 -69 -60 -72 -249 -4 -193 3 -237 48 -280 l31 -30
640 -3 639 -2 48 -37 c48 -37 130 -78 138 -70 3 2 1 30 -4 61 -8 49 -7 59 8
69 10 7 27 28 39 47 19 32 21 49 21 215 0 157 -3 186 -20 223 -34 75 0 72
-787 72 -601 0 -702 -3 -729 -16z m194 -215 l18 -42 14 42 c11 35 17 41 41 41
15 0 30 -3 32 -7 3 -5 8 -50 11 -100 l8 -93 -31 0 c-28 0 -31 3 -32 33 l-1 32
-14 -32 c-8 -18 -21 -33 -30 -33 -8 0 -21 15 -29 33 l-14 32 -1 -32 c0 -30 -3
-33 -30 -33 -28 0 -30 2 -30 39 0 21 3 66 6 100 7 59 8 61 36 61 24 0 32 -6
46 -41z m197 19 l16 -23 16 23 c11 15 25 22 49 22 19 0 34 -2 34 -5 0 -3 -16
-29 -35 -58 -26 -39 -35 -62 -35 -94 0 -41 -1 -43 -30 -43 -29 0 -30 2 -30 46
0 33 -7 56 -28 87 -47 69 -47 67 -8 67 25 0 40 -7 51 -22z m305 -8 c0 -23 -4
-30 -20 -30 -17 0 -19 -8 -22 -67 -3 -66 -4 -68 -30 -71 l-28 -3 0 70 c0 65
-2 71 -20 71 -23 0 -35 22 -26 45 4 11 22 15 76 15 l70 0 0 -30z m141 -70 l38
-95 -27 -3 c-19 -3 -31 3 -41 17 -18 27 -61 28 -68 1 -4 -14 -14 -20 -34 -20
-38 0 -37 9 7 115 33 78 39 86 61 83 22 -3 31 -17 64 -98z m168 91 c9 -6 11
-18 7 -35 -6 -23 -10 -25 -34 -20 -26 6 -26 5 6 -15 17 -11 33 -26 34 -33 1
-7 4 14 7 47 6 56 8 60 34 63 24 3 27 0 27 -24 l0 -28 29 28 c21 21 37 27 61
24 l31 -3 -35 -42 c-20 -22 -36 -45 -36 -50 0 -5 18 -27 40 -48 22 -21 40 -43
40 -47 0 -4 -17 -8 -39 -8 -30 0 -42 5 -55 25 -9 14 -21 25 -26 25 -6 0 -10
-11 -10 -25 0 -20 -5 -25 -26 -25 -17 0 -28 6 -31 19 -5 20 -5 20 -26 0 -23
-22 -64 -25 -102 -7 -28 12 -30 20 -15 49 9 16 15 17 31 8 11 -5 25 -8 32 -6
7 2 -2 11 -19 20 -48 25 -58 63 -24 97 21 21 74 27 99 11z m335 -4 c16 -12 17
-16 5 -34 -10 -17 -17 -19 -36 -12 -14 5 -23 5 -23 -1 0 -5 9 -12 20 -15 52
-17 68 -81 28 -109 -29 -20 -77 -20 -105 -1 -19 13 -21 19 -11 40 12 27 23 31
33 15 3 -5 16 -10 27 -10 17 0 15 4 -13 23 -40 27 -50 68 -23 98 20 22 72 25
98 6z"/>
</g>
</svg>
